<svg id="group" xmlns="http://www.w3.org/2000/svg" width="70.012" height="70.012" viewBox="0 0 70.012 70.012">
  <path id="Trazado_144602" data-name="Trazado 144602" d="M38.334,308.851a8.131,8.131,0,0,0-3.969-2.272l-5.626-1.348,0,0,0,0V301.8h-6.87v3.446h0l-5.611,1.34A8.152,8.152,0,0,0,10,314.511V323.7H22.438Z" transform="translate(-8.633 -260.529)" fill="#1565c0"/>
  <path id="Trazado_144603" data-name="Trazado 144603" d="M103.127,301.8v3.527l-3.565,8.54L96,305.336V301.8Z" transform="translate(-82.873 -260.529)" fill="#ffb487"/>
  <path id="Trazado_144604" data-name="Trazado 144604" d="M81.267,215.261v4.757a7.658,7.658,0,0,1-7.658,7.658h0a7.658,7.658,0,0,1-7.658-7.658v-4.757Z" transform="translate(-56.933 -185.826)" fill="#ffcdac"/>
  <path id="Trazado_144605" data-name="Trazado 144605" d="M81.267,166.286v-1.843a7.658,7.658,0,0,0-7.658-7.658h0a7.658,7.658,0,0,0-7.658,7.658v1.843H71.23a18.259,18.259,0,0,0,9.385-2.6h0" transform="translate(-56.933 -135.346)" fill="#878791"/>
  <path id="Trazado_144606" data-name="Trazado 144606" d="M294.79,308.851a8.131,8.131,0,0,1,3.969-2.272l5.626-1.348,0,0,0,0V301.8h6.87v3.446h0l5.611,1.34a8.152,8.152,0,0,1,6.258,7.928V323.7H310.686Z" transform="translate(-254.48 -260.529)" fill="#26a69a"/>
  <path id="Trazado_144607" data-name="Trazado 144607" d="M116.507,352.4l-7.836,1.878a11.354,11.354,0,0,0-8.708,11.041v7.537h42.646v-7.53a11.354,11.354,0,0,0-8.716-11.043l-7.816-1.867Z" transform="translate(-86.293 -304.215)" fill="#ffca28"/>
  <g id="Grupo_83977" data-name="Grupo 83977" transform="translate(29.902 41.268)">
    <path id="Trazado_144608" data-name="Trazado 144608" d="M371.007,301.8v3.539l-3.562,8.528-3.565-8.54V301.8Z" transform="translate(-344.024 -301.797)" fill="#ffb487"/>
    <path id="Trazado_144609" data-name="Trazado 144609" d="M223.779,338.952l5.1-11.583a4.211,4.211,0,0,1-.594-2.159V324.1h-9.02v1.113a4.211,4.211,0,0,1-.592,2.156Z" transform="translate(-218.674 -321.047)" fill="#ffb487"/>
  </g>
  <path id="Trazado_144610" data-name="Trazado 144610" d="M199.333,191.525v7.359a10.666,10.666,0,0,1-10.666,10.666h0A10.666,10.666,0,0,1,178,198.884v-7.359Z" transform="translate(-153.661 -165.336)" fill="#ffcdac"/>
  <path id="Trazado_144611" data-name="Trazado 144611" d="M188.665,115.437h0A10.666,10.666,0,0,0,178,126.1v2.568h5.215a11.718,11.718,0,0,0,8.982-4.192h0l7.135,4.192V126.1A10.666,10.666,0,0,0,188.665,115.437Z" transform="translate(-153.659 -99.652)" fill="#f5b955"/>
  <path id="Trazado_144612" data-name="Trazado 144612" d="M334.045,215.261v4.757a7.658,7.658,0,0,0,7.658,7.658h0a7.658,7.658,0,0,0,7.658-7.658v-4.757Z" transform="translate(-288.367 -185.826)" fill="#ffcdac"/>
  <path id="Trazado_144613" data-name="Trazado 144613" d="M334.045,166.286v-1.843a7.658,7.658,0,0,1,7.658-7.658h0a7.658,7.658,0,0,1,7.658,7.658v1.843h-5.279a18.259,18.259,0,0,1-9.385-2.6h0" transform="translate(-288.367 -135.346)" fill="#878791"/>
  <path id="Trazado_144614" data-name="Trazado 144614" d="M247.107,492a1.368,1.368,0,1,0,.967.4A1.377,1.377,0,0,0,247.107,492Z" transform="translate(-212.137 -424.723)"/>
  <path id="Trazado_144615" data-name="Trazado 144615" d="M62.7,135.744l-4.561-1.09v-1.809a9.025,9.025,0,0,0,4.218-7.633v-5.1a9.02,9.02,0,0,0-15.778-5.979,12.055,12.055,0,0,0-11.563-8.7h0a12.055,12.055,0,0,0-11.571,8.724,9.019,9.019,0,0,0-15.8,5.955v5.1a9.024,9.024,0,0,0,4.218,7.633v1.809l-4.561,1.09A9.488,9.488,0,0,0,0,145v9.192a1.367,1.367,0,0,0,1.367,1.367H12.3v4.1a1.367,1.367,0,0,0,1.367,1.367h15a1.367,1.367,0,1,0,0-2.735h-6.1v-6.018a1.367,1.367,0,0,0-2.735,0V158.3H15.036v-6.17a9.955,9.955,0,0,1,7.66-9.712l6.725-1.612,4.327,9.845a1.367,1.367,0,0,0,1.252.817h0a1.367,1.367,0,0,0,1.252-.817l4.323-9.831,6.706,1.6a9.954,9.954,0,0,1,7.666,9.713v1.526a1.37,1.37,0,0,0,0,1.07V158.3H50.181v-6.018a1.367,1.367,0,1,0-2.735,0V158.3h-6.7a1.367,1.367,0,1,0,0,2.735H56.315a1.367,1.367,0,0,0,1.367-1.367v-4.1H68.644a1.367,1.367,0,0,0,1.367-1.367V145A9.488,9.488,0,0,0,62.7,135.744Zm-7.293.063-2.088,5-2.06-4.933a1.366,1.366,0,0,0,.009-.15c0-.013,0-.026,0-.038V134a8.963,8.963,0,0,0,4.135,0v1.739C55.408,135.758,55.41,135.782,55.411,135.807Zm-26.565,1.1a9.495,9.495,0,0,0-2.795-1.165l-4.577-1.1V132.85a9.09,9.09,0,0,0,2.826-2.818,12.12,12.12,0,0,0,4.546,4.861Zm-3.125-12.337v-3.163h3.848a13.05,13.05,0,0,0,9.242-3.821l5.5,3.231v4.073a9.3,9.3,0,0,1-18.589-.321ZM41.15,134.919a12.119,12.119,0,0,0,4.577-4.862,9.1,9.1,0,0,0,2.811,2.794v1.793l-4.577,1.1a9.5,9.5,0,0,0-2.81,1.175v-2ZM53.336,131.5a6.3,6.3,0,0,1-6.29-6.29v-.223c0-.14.008-3.677.008-3.677a19.631,19.631,0,0,0,8.661,2.015h3.911v1.885A6.3,6.3,0,0,1,53.336,131.5Zm0-17.676a6.3,6.3,0,0,1,6.29,6.29v.476H55.715a16.9,16.9,0,0,1-8.416-2.246A6.3,6.3,0,0,1,53.336,113.826ZM25.721,117.47a9.3,9.3,0,0,1,18.6,0v.178l-5.075-2.982a1.367,1.367,0,0,0-1.741.3,10.327,10.327,0,0,1-7.934,3.7H25.721Zm-15.335,2.646a6.291,6.291,0,0,1,12.327-1.77,16.9,16.9,0,0,1-8.416,2.246H10.386v-.476Zm0,3.211H14.3a19.63,19.63,0,0,0,8.67-2.019v3.9a6.29,6.29,0,0,1-12.581,0S10.386,123.327,10.386,123.327Zm6.29,10.91A9.018,9.018,0,0,0,18.739,134v1.65c0,.026,0,.051,0,.077,0,.043,0,.086.008.129l-2.069,4.954L14.6,135.832c0-.033,0-.065,0-.1v-1.739A9.019,9.019,0,0,0,16.676,134.237ZM12.3,152.127v.7H8.2v-6.075a1.367,1.367,0,0,0-2.735,0v6.075H2.735V145a6.762,6.762,0,0,1,5.208-6.6l4.334-1.036,2.829,6.776A12.694,12.694,0,0,0,12.3,152.127Zm9.757-12.371a12.853,12.853,0,0,0-2.312.795l1.332-3.189,4.335,1.039a6.777,6.777,0,0,1,.981.316ZM35,146.7l-3.42-7.78V136.1a12.043,12.043,0,0,0,6.834.013v2.822Zm8.591-7.974A6.79,6.79,0,0,1,44.6,138.4l4.325-1.036,1.337,3.2a12.855,12.855,0,0,0-2.343-.807Zm23.685,14.1H64.542v-6.075a1.367,1.367,0,1,0-2.735,0v6.075H57.682v-.693a12.694,12.694,0,0,0-2.8-7.973l2.838-6.795,4.345,1.038a6.762,6.762,0,0,1,5.208,6.6Z" transform="translate(0 -91.019)"/>
  <path id="Trazado_144616" data-name="Trazado 144616" d="M213.827,231.25a1.368,1.368,0,1,0,.967.4A1.378,1.378,0,0,0,213.827,231.25Z" transform="translate(-183.408 -199.628)"/>
  <path id="Trazado_144617" data-name="Trazado 144617" d="M280.7,233.985a1.368,1.368,0,1,0-.967-.4A1.377,1.377,0,0,0,280.7,233.985Z" transform="translate(-241.134 -199.628)"/>
  <path id="Trazado_144618" data-name="Trazado 144618" d="M239.042,265.314a1.368,1.368,0,0,0-1.934,0,1.038,1.038,0,0,1-1.467,0,1.367,1.367,0,0,0-1.934,1.934,3.776,3.776,0,0,0,5.334,0A1.367,1.367,0,0,0,239.042,265.314Z" transform="translate(-201.404 -228.689)"/>
  <path id="Trazado_144619" data-name="Trazado 144619" d="M397.987,56.735h.938a1.367,1.367,0,0,0,0-2.735h-.938a1.367,1.367,0,1,0,0,2.735Z" transform="translate(-342.386 -46.616)"/>
  <path id="Trazado_144620" data-name="Trazado 144620" d="M446.508,56.735h.938a1.367,1.367,0,0,0,0-2.735h-.938a1.367,1.367,0,1,0,0,2.735Z" transform="translate(-384.272 -46.616)"/>
  <path id="Trazado_144621" data-name="Trazado 144621" d="M425.678,78.5a1.367,1.367,0,0,0,1.367-1.367V76.2a1.367,1.367,0,0,0-2.735,0v.938A1.367,1.367,0,0,0,425.678,78.5Z" transform="translate(-366.29 -64.598)"/>
  <path id="Trazado_144622" data-name="Trazado 144622" d="M425.678,29.983a1.367,1.367,0,0,0,1.367-1.367v-.938a1.367,1.367,0,0,0-2.735,0v.938A1.367,1.367,0,0,0,425.678,29.983Z" transform="translate(-366.29 -22.712)"/>
  <path id="Trazado_144623" data-name="Trazado 144623" d="M40.811,56.735h.938a1.367,1.367,0,0,0,0-2.735h-.938a1.367,1.367,0,1,0,0,2.735Z" transform="translate(-34.05 -46.616)"/>
  <path id="Trazado_144624" data-name="Trazado 144624" d="M89.332,56.735h.938a1.367,1.367,0,1,0,0-2.735h-.938a1.367,1.367,0,1,0,0,2.735Z" transform="translate(-75.937 -46.616)"/>
  <path id="Trazado_144625" data-name="Trazado 144625" d="M68.5,78.5a1.367,1.367,0,0,0,1.367-1.367V76.2a1.367,1.367,0,0,0-2.735,0v.938A1.367,1.367,0,0,0,68.5,78.5Z" transform="translate(-57.954 -64.598)"/>
  <path id="Trazado_144626" data-name="Trazado 144626" d="M68.5,29.983a1.367,1.367,0,0,0,1.367-1.367v-.938a1.367,1.367,0,0,0-2.735,0v.938A1.367,1.367,0,0,0,68.5,29.983Z" transform="translate(-57.954 -22.712)"/>
  <path id="Trazado_144627" data-name="Trazado 144627" d="M247.367,44.42a1.367,1.367,0,0,0,1.367-1.367v-3.6a1.367,1.367,0,1,0-2.735,0v3.6A1.367,1.367,0,0,0,247.367,44.42Z" transform="translate(-212.362 -32.879)"/>
  <path id="Trazado_144628" data-name="Trazado 144628" d="M247.367,2.735a1.368,1.368,0,0,0,1.367-1.367,1.367,1.367,0,1,0-2.334.967A1.378,1.378,0,0,0,247.367,2.735Z" transform="translate(-212.362)"/>
  <path id="Trazado_144629" data-name="Trazado 144629" d="M191.651,26.892a1.367,1.367,0,1,0,1.934-1.934l-2-2a1.368,1.368,0,0,0-1.934,1.934Z" transform="translate(-163.371 -19.472)"/>
  <path id="Trazado_144630" data-name="Trazado 144630" d="M288.993,26.809a1.363,1.363,0,0,0,.967-.4l2.068-2.068a1.368,1.368,0,1,0-1.934-1.934l-2.068,2.068a1.367,1.367,0,0,0,.967,2.334Z" transform="translate(-248.295 -18.997)"/>
</svg>
