<svg xmlns="http://www.w3.org/2000/svg" width="71.798" height="89.05" viewBox="0 0 71.798 89.05">
  <g id="Grupo_1071924" data-name="Grupo 1071924" transform="translate(-1629.031 10439.676)">
    <g id="group" transform="translate(1629.031 -10439.676)">
      <path id="Trazado_144602" data-name="Trazado 144602" d="M36.526,308.4a7.612,7.612,0,0,0-3.716-2.127l-5.267-1.262,0,0,0,0V301.8H21.112v3.226h0l-5.253,1.255A7.631,7.631,0,0,0,10,313.7v8.605H21.645Z" transform="translate(-8.72 -263.163)" fill="#1565c0"/>
      <path id="Trazado_144603" data-name="Trazado 144603" d="M102.672,301.8v3.3l-3.338,8L96,305.111V301.8Z" transform="translate(-83.71 -263.163)" fill="#ffb487"/>
      <path id="Trazado_144604" data-name="Trazado 144604" d="M80.289,215.261v4.454a7.169,7.169,0,0,1-7.169,7.169h0a7.169,7.169,0,0,1-7.169-7.169v-4.454Z" transform="translate(-57.508 -187.705)" fill="#ffcdac"/>
      <path id="Trazado_144605" data-name="Trazado 144605" d="M80.289,165.68v-1.726a7.169,7.169,0,0,0-7.169-7.169h0a7.169,7.169,0,0,0-7.169,7.169v1.726h4.942a17.094,17.094,0,0,0,8.786-2.431h0" transform="translate(-57.508 -136.714)" fill="#878791"/>
      <path id="Trazado_144606" data-name="Trazado 144606" d="M294.79,308.4a7.611,7.611,0,0,1,3.716-2.127l5.267-1.262,0,0,0,0V301.8H310.2v3.226h0l5.253,1.255a7.631,7.631,0,0,1,5.859,7.422v8.605H309.672Z" transform="translate(-257.052 -263.163)" fill="#26a69a"/>
      <path id="Trazado_144607" data-name="Trazado 144607" d="M115.451,352.4l-7.336,1.758A10.63,10.63,0,0,0,99.962,364.5v7.056h39.924V364.5a10.63,10.63,0,0,0-8.16-10.339l-7.317-1.748Z" transform="translate(-87.165 -307.29)" fill="#ffca28"/>
      <g id="Grupo_83977" data-name="Grupo 83977" transform="translate(27.994 38.634)">
        <path id="Trazado_144608" data-name="Trazado 144608" d="M370.552,301.8v3.314l-3.334,7.984-3.338-8v-3.3Z" transform="translate(-345.291 -301.797)" fill="#ffb487"/>
        <path id="Trazado_144609" data-name="Trazado 144609" d="M223.454,338l4.776-10.844a3.943,3.943,0,0,1-.556-2.022V324.1h-8.445v1.042a3.941,3.941,0,0,1-.555,2.019Z" transform="translate(-218.674 -321.241)" fill="#ffb487"/>
      </g>
      <path id="Trazado_144610" data-name="Trazado 144610" d="M197.972,191.525v6.89a9.985,9.985,0,0,1-9.985,9.985h0A9.985,9.985,0,0,1,178,198.415v-6.89Z" transform="translate(-155.214 -167.007)" fill="#ffcdac"/>
      <path id="Trazado_144611" data-name="Trazado 144611" d="M187.984,115.437h0A9.985,9.985,0,0,0,178,125.422v2.4h4.882a10.971,10.971,0,0,0,8.409-3.924h0l6.68,3.924v-2.4A9.985,9.985,0,0,0,187.984,115.437Z" transform="translate(-155.212 -100.659)" fill="#f5b955"/>
      <path id="Trazado_144612" data-name="Trazado 144612" d="M334.045,215.261v4.454a7.169,7.169,0,0,0,7.169,7.169h0a7.169,7.169,0,0,0,7.169-7.169v-4.454Z" transform="translate(-291.282 -187.705)" fill="#ffcdac"/>
      <path id="Trazado_144613" data-name="Trazado 144613" d="M334.045,165.68v-1.726a7.169,7.169,0,0,1,7.169-7.169h0a7.169,7.169,0,0,1,7.169,7.169v1.726h-4.942a17.1,17.1,0,0,1-8.786-2.431h0" transform="translate(-291.282 -136.714)" fill="#878791"/>
      <path id="Trazado_144614" data-name="Trazado 144614" d="M247.02,492a1.281,1.281,0,1,0,.9.375A1.289,1.289,0,0,0,247.02,492Z" transform="translate(-214.281 -429.017)"/>
      <path id="Trazado_144615" data-name="Trazado 144615" d="M58.7,133.809l-4.27-1.02V131.1a8.449,8.449,0,0,0,3.949-7.145v-4.771a8.444,8.444,0,0,0-14.771-5.6,11.286,11.286,0,0,0-10.826-8.145h0A11.286,11.286,0,0,0,21.953,113.6a8.444,8.444,0,0,0-14.79,5.575v4.771a8.448,8.448,0,0,0,3.949,7.145v1.694l-4.27,1.02A8.883,8.883,0,0,0,0,142.477v8.605a1.28,1.28,0,0,0,1.28,1.28H11.517v3.84a1.28,1.28,0,0,0,1.28,1.28H26.841a1.28,1.28,0,1,0,0-2.56H21.126v-5.634a1.28,1.28,0,0,0-2.56,0v5.634H14.077v-5.776a9.32,9.32,0,0,1,7.171-9.092l6.3-1.509,4.051,9.217a1.28,1.28,0,0,0,1.172.765h0a1.28,1.28,0,0,0,1.172-.765l4.047-9.2,6.278,1.5a9.319,9.319,0,0,1,7.177,9.093v1.429a1.282,1.282,0,0,0,0,1v3.34H46.979v-5.634a1.28,1.28,0,0,0-2.56,0v5.634h-6.27a1.28,1.28,0,1,0,0,2.56H52.721A1.28,1.28,0,0,0,54,156.2v-3.84H64.264a1.28,1.28,0,0,0,1.28-1.28v-8.605A8.883,8.883,0,0,0,58.7,133.809Zm-6.828.059-1.955,4.68-1.928-4.618a1.281,1.281,0,0,0,.009-.14c0-.012,0-.024,0-.036v-1.581a8.391,8.391,0,0,0,3.871,0V133.8C51.872,133.823,51.874,133.846,51.875,133.869ZM27.005,134.9a8.889,8.889,0,0,0-2.616-1.091L20.1,132.78V131.1a8.51,8.51,0,0,0,2.646-2.638,11.346,11.346,0,0,0,4.256,4.551Zm-2.926-11.55v-2.961h3.6a12.218,12.218,0,0,0,8.652-3.577l5.149,3.025v3.813a8.7,8.7,0,0,1-17.4-.3Zm14.445,9.69a11.346,11.346,0,0,0,4.285-4.552,8.515,8.515,0,0,0,2.631,2.616v1.679l-4.285,1.027a8.889,8.889,0,0,0-2.631,1.1v-1.869Zm11.408-3.2a5.9,5.9,0,0,1-5.889-5.889v-.209c0-.131.008-3.442.008-3.442a18.378,18.378,0,0,0,8.109,1.886h3.662v1.765A5.9,5.9,0,0,1,49.932,129.838Zm0-16.548a5.9,5.9,0,0,1,5.889,5.889v.446H52.16a15.817,15.817,0,0,1-7.879-2.1A5.9,5.9,0,0,1,49.932,113.29ZM24.08,116.7a8.705,8.705,0,0,1,17.411,0v.167l-4.751-2.791a1.28,1.28,0,0,0-1.63.282,9.668,9.668,0,0,1-7.428,3.466h-3.6ZM9.723,119.179a5.889,5.889,0,0,1,11.541-1.657,15.819,15.819,0,0,1-7.879,2.1H9.723v-.446Zm0,3.006h3.662A18.378,18.378,0,0,0,21.5,120.3v3.655a5.889,5.889,0,0,1-11.778,0S9.723,122.185,9.723,122.185ZM15.612,132.4a8.443,8.443,0,0,0,1.932-.225v1.545c0,.024,0,.048,0,.072,0,.04,0,.08.008.12l-1.937,4.638-1.944-4.657c0-.031,0-.061,0-.092v-1.628A8.444,8.444,0,0,0,15.612,132.4Zm-4.1,16.748v.655H7.681v-5.688a1.28,1.28,0,0,0-2.56,0V149.8H2.56v-7.325A6.331,6.331,0,0,1,7.436,136.3l4.058-.969,2.648,6.344A11.884,11.884,0,0,0,11.517,149.147Zm9.134-11.582a12.034,12.034,0,0,0-2.164.744l1.247-2.986,4.059.973a6.338,6.338,0,0,1,.918.3Zm12.116,6.5-3.2-7.284v-2.64a11.274,11.274,0,0,0,6.4.012V136.8ZM40.81,136.6a6.356,6.356,0,0,1,.942-.306l4.049-.97,1.252,3a12.033,12.033,0,0,0-2.194-.756Zm22.174,13.2h-2.56v-5.688a1.28,1.28,0,0,0-2.56,0V149.8H54v-.649a11.883,11.883,0,0,0-2.618-7.464l2.657-6.361,4.068.972a6.331,6.331,0,0,1,4.876,6.177Z" transform="translate(0 -91.94)"/>
      <path id="Trazado_144616" data-name="Trazado 144616" d="M213.74,231.25a1.281,1.281,0,1,0,.905.375A1.29,1.29,0,0,0,213.74,231.25Z" transform="translate(-185.262 -201.647)"/>
      <path id="Trazado_144617" data-name="Trazado 144617" d="M280.61,233.81a1.281,1.281,0,1,0-.9-.375A1.29,1.29,0,0,0,280.61,233.81Z" transform="translate(-243.571 -201.647)"/>
      <path id="Trazado_144618" data-name="Trazado 144618" d="M238.676,265.288a1.281,1.281,0,0,0-1.811,0,.972.972,0,0,1-1.373,0,1.28,1.28,0,1,0-1.81,1.811,3.535,3.535,0,0,0,4.994,0A1.28,1.28,0,0,0,238.676,265.288Z" transform="translate(-203.44 -231.001)"/>
      <path id="Trazado_144619" data-name="Trazado 144619" d="M397.9,56.56h.878a1.28,1.28,0,0,0,0-2.56H397.9a1.28,1.28,0,1,0,0,2.56Z" transform="translate(-345.846 -47.087)"/>
      <path id="Trazado_144620" data-name="Trazado 144620" d="M446.421,56.56h.878a1.28,1.28,0,1,0,0-2.56h-.878a1.28,1.28,0,1,0,0,2.56Z" transform="translate(-388.156 -47.087)"/>
      <path id="Trazado_144621" data-name="Trazado 144621" d="M425.591,78.269a1.28,1.28,0,0,0,1.28-1.28v-.878a1.28,1.28,0,0,0-2.56,0v.878A1.28,1.28,0,0,0,425.591,78.269Z" transform="translate(-369.992 -65.252)"/>
      <path id="Trazado_144622" data-name="Trazado 144622" d="M425.591,29.748a1.28,1.28,0,0,0,1.28-1.28V27.59a1.28,1.28,0,0,0-2.56,0v.878A1.28,1.28,0,0,0,425.591,29.748Z" transform="translate(-369.992 -22.942)"/>
      <path id="Trazado_144623" data-name="Trazado 144623" d="M40.724,56.56H41.6a1.28,1.28,0,1,0,0-2.56h-.878a1.28,1.28,0,1,0,0,2.56Z" transform="translate(-34.395 -47.087)"/>
      <path id="Trazado_144624" data-name="Trazado 144624" d="M89.245,56.56h.878a1.28,1.28,0,1,0,0-2.56h-.878a1.28,1.28,0,1,0,0,2.56Z" transform="translate(-76.704 -47.087)"/>
      <path id="Trazado_144625" data-name="Trazado 144625" d="M68.414,78.269a1.28,1.28,0,0,0,1.28-1.28v-.878a1.28,1.28,0,0,0-2.56,0v.878A1.28,1.28,0,0,0,68.414,78.269Z" transform="translate(-58.54 -65.252)"/>
      <path id="Trazado_144626" data-name="Trazado 144626" d="M68.414,29.748a1.28,1.28,0,0,0,1.28-1.28V27.59a1.28,1.28,0,0,0-2.56,0v.878A1.28,1.28,0,0,0,68.414,29.748Z" transform="translate(-58.54 -22.942)"/>
      <path id="Trazado_144627" data-name="Trazado 144627" d="M247.28,44.015a1.28,1.28,0,0,0,1.28-1.28V39.367a1.28,1.28,0,0,0-2.56,0v3.368A1.28,1.28,0,0,0,247.28,44.015Z" transform="translate(-214.508 -33.211)"/>
      <path id="Trazado_144628" data-name="Trazado 144628" d="M247.28,2.56a1.281,1.281,0,0,0,1.28-1.28,1.28,1.28,0,1,0-2.185.905A1.29,1.29,0,0,0,247.28,2.56Z" transform="translate(-214.508 0)"/>
      <path id="Trazado_144629" data-name="Trazado 144629" d="M191.5,26.615a1.28,1.28,0,1,0,1.81-1.81l-1.873-1.873a1.28,1.28,0,0,0-1.811,1.811Z" transform="translate(-165.022 -19.669)"/>
      <path id="Trazado_144630" data-name="Trazado 144630" d="M288.905,26.5a1.276,1.276,0,0,0,.905-.375l1.936-1.936a1.28,1.28,0,0,0-1.811-1.811L288,24.317a1.28,1.28,0,0,0,.905,2.185Z" transform="translate(-250.805 -19.189)"/>
    </g>
    <g id="candado" transform="translate(1664.528 -10397.387)">
      <path id="Trazado_144631" data-name="Trazado 144631" d="M138.685,27.907v-7.28a13.024,13.024,0,1,0-26.047,0v7.28m4.7,0v-7.28a8.327,8.327,0,1,1,16.654,0v7.28" transform="translate(-107.636 -6.913)" fill="#d3dae0"/>
      <g id="Grupo_83978" data-name="Grupo 83978" transform="translate(5.002 0.69)">
        <path id="Trazado_144632" data-name="Trazado 144632" d="M126.422,7.626c-.251-.014-.5-.023-.76-.023a13.024,13.024,0,0,0-13.024,13.024v7.28h1.519v-7.28A13.024,13.024,0,0,1,126.422,7.626Z" transform="translate(-112.638 -7.603)" fill="#899ea8"/>
        <path id="Trazado_144633" data-name="Trazado 144633" d="M265.126,59.3c-.256,0-.51.012-.76.035a8.337,8.337,0,0,1,7.567,8.292v7.28h1.519v-7.28A8.336,8.336,0,0,0,265.126,59.3Z" transform="translate(-250.582 -54.604)" fill="#899ea8"/>
      </g>
      <path id="Trazado_144637" data-name="Trazado 144637" d="M0,0H34.669V24.827H0Z" transform="translate(0.691 20.994)" fill="#ffca28"/>
      <rect id="Rectángulo_31537" data-name="Rectángulo 31537" width="3.039" height="24.827" transform="translate(0.691 20.994)" fill="#e48900"/>
      <path id="Trazado_144634" data-name="Trazado 144634" d="M222.408,304.78a3.729,3.729,0,1,0-5.5,3.282l-.6,4.59h4.743l-.6-4.59A3.728,3.728,0,0,0,222.408,304.78Z" transform="translate(-200.653 -273.704)" fill="#3e3d4c"/>
      <path id="Trazado_144635" data-name="Trazado 144635" d="M92.94,20.3H89.319V17.68a.691.691,0,0,0-.691-.691h0a.691.691,0,0,0-.691.691V20.3H84.623V13.829a9.018,9.018,0,1,0-18.035-.114V20.3H63.272V13.851a12.333,12.333,0,1,1,24.666-.136v.742a.691.691,0,0,0,.691.691h0a.691.691,0,0,0,.691-.691v-.61a13.715,13.715,0,1,0-27.428-.132V20.3h-3.62A.691.691,0,0,0,57.58,21V39.044a.691.691,0,0,0,.691.691h0a.691.691,0,0,0,.691-.691V21.686H92.249V45.131H58.961V42.267a.691.691,0,0,0-.691-.691h0a.691.691,0,0,0-.691.691v3.554a.691.691,0,0,0,.691.691H92.94a.691.691,0,0,0,.691-.691V20.995A.691.691,0,0,0,92.94,20.3Zm-24.971-6.59a7.636,7.636,0,1,1,15.273,0V20.3H67.969Z" transform="translate(-57.58 -0.001)" fill="#100a0a" stroke="#000" stroke-width="0.5"/>
      <path id="Trazado_144636" data-name="Trazado 144636" d="M216.186,297.867a4.42,4.42,0,1,0-6.934,3.636l-.542,4.148a.691.691,0,0,0,.685.78h4.743a.691.691,0,0,0,.685-.78l-.542-4.148A4.417,4.417,0,0,0,216.186,297.867Zm-2.977,2.675a.691.691,0,0,0-.356.7l.5,3.81h-3.169l.5-3.81a.691.691,0,0,0-.356-.7,3.039,3.039,0,1,1,2.885,0Z" transform="translate(-193.74 -266.791)"/>
    </g>
  </g>
</svg>
