<svg xmlns="http://www.w3.org/2000/svg" xmlns:xlink="http://www.w3.org/1999/xlink" width="119.69" height="133.258" viewBox="0 0 119.69 133.258">
  <defs>
    <radialGradient id="radial-gradient" cx="-0.062" cy="0.839" r="0.382" gradientTransform="translate(-0.723) scale(2.447 1)" gradientUnits="objectBoundingBox">
      <stop offset="0" stop-color="#699dd1"/>
      <stop offset="0.266" stop-color="#6296cb"/>
      <stop offset="0.641" stop-color="#5084bd"/>
      <stop offset="1" stop-color="#396caa"/>
    </radialGradient>
    <radialGradient id="radial-gradient-2" cx="-0.169" cy="1.053" r="0.384" gradientTransform="translate(-0.689) scale(2.377 1)" xlink:href="#radial-gradient"/>
    <radialGradient id="radial-gradient-3" cx="-0.062" cy="0.839" r="0.382" xlink:href="#radial-gradient"/>
    <radialGradient id="radial-gradient-4" cx="-0.169" cy="1.053" r="0.384" gradientTransform="translate(-0.689) scale(2.377 1)" xlink:href="#radial-gradient"/>
    <radialGradient id="radial-gradient-5" cx="0.5" cy="0.5" r="0.471" gradientTransform="translate(-0.069) scale(1.139 1)" xlink:href="#radial-gradient"/>
    <linearGradient id="linear-gradient" y1="0.5" x2="1" y2="0.5" gradientUnits="objectBoundingBox">
      <stop offset="0" stop-color="#d4ecff"/>
      <stop offset="0.239" stop-color="#d0e9fd"/>
      <stop offset="0.46" stop-color="#c5e2f9"/>
      <stop offset="0.675" stop-color="#b2d5f1"/>
      <stop offset="0.884" stop-color="#98c4e7"/>
      <stop offset="1" stop-color="#86b8e0"/>
    </linearGradient>
    <radialGradient id="radial-gradient-6" cx="1.002" cy="0.908" r="1.092" gradientTransform="translate(0.007) scale(0.987 1)" gradientUnits="objectBoundingBox">
      <stop offset="0" stop-color="#173d7a"/>
      <stop offset="1" stop-color="#274f89"/>
    </radialGradient>
  </defs>
  <g id="Grupo_1044014" data-name="Grupo 1044014" transform="translate(-2.854 -13)">
    <g id="Grupo_142631" data-name="Grupo 142631" transform="translate(2.854 13)">
      <g id="Grupo_142619" data-name="Grupo 142619" transform="translate(28.211 49.175)">
        <g id="Grupo_142618" data-name="Grupo 142618">
          <path id="Trazado_183998" data-name="Trazado 183998" d="M377.826,165.222a1,1,0,0,1-1-1V132.553a1,1,0,1,1,2.005,0V164.22A1,1,0,0,1,377.826,165.222Z" transform="translate(-369.793 -99.146)" fill="#396caa"/>
          <g id="Grupo_142617" data-name="Grupo 142617">
            <path id="Trazado_183999" data-name="Trazado 183999" d="M372.209,128.532v21.394h0a2.461,2.461,0,0,0,1.452,2.023,7.748,7.748,0,0,0,7.01,0,2.461,2.461,0,0,0,1.452-2.023V128.532Z" transform="translate(-369.133 -98.714)" fill="url(#radial-gradient)"/>
            <g id="Grupo_142616" data-name="Grupo 142616">
              <path id="Trazado_184000" data-name="Trazado 184000" d="M372.209,132.472v7.241a12.822,12.822,0,0,0,9.914,0v-7.241A12.83,12.83,0,0,0,372.209,132.472Z" transform="translate(-369.133 -99.135)" fill="#396caa"/>
              <path id="Trazado_184001" data-name="Trazado 184001" d="M384.685,93.739H368.62v33.555h0c0,1.187.784,2.374,2.352,3.28a12.558,12.558,0,0,0,11.36,0c1.568-.906,2.352-2.093,2.352-3.28h0Z" transform="translate(-368.62 -93.739)" fill="url(#radial-gradient-2)"/>
            </g>
          </g>
        </g>
        <path id="Trazado_184002" data-name="Trazado 184002" d="M375.855,149.219c0,.985-.691,1.383-1.543.891a3.411,3.411,0,0,1-1.544-2.673c0-.984.691-1.382,1.544-.89A3.41,3.41,0,0,1,375.855,149.219Z" transform="translate(-369.213 -101.26)" fill="#d4ecff"/>
      </g>
      <g id="Grupo_142623" data-name="Grupo 142623" transform="translate(59.362 67.182)">
        <g id="Grupo_142622" data-name="Grupo 142622">
          <path id="Trazado_184003" data-name="Trazado 184003" d="M414.175,186.233a1,1,0,0,1-1-1V153.564a1,1,0,1,1,2,0v31.667A1,1,0,0,1,414.175,186.233Z" transform="translate(-406.142 -120.157)" fill="#396caa"/>
          <g id="Grupo_142621" data-name="Grupo 142621">
            <path id="Trazado_184004" data-name="Trazado 184004" d="M408.558,149.543v21.394h0a2.464,2.464,0,0,0,1.452,2.023,7.748,7.748,0,0,0,7.01,0,2.462,2.462,0,0,0,1.452-2.023V149.543Z" transform="translate(-405.482 -119.725)" fill="url(#radial-gradient-3)"/>
            <g id="Grupo_142620" data-name="Grupo 142620">
              <path id="Trazado_184005" data-name="Trazado 184005" d="M408.558,153.483v7.24a12.824,12.824,0,0,0,9.915,0v-7.241A12.832,12.832,0,0,0,408.558,153.483Z" transform="translate(-405.482 -120.146)" fill="#396caa"/>
              <path id="Trazado_184006" data-name="Trazado 184006" d="M421.034,114.75H404.969V148.3h0c0,1.187.784,2.374,2.353,3.279a12.55,12.55,0,0,0,11.359,0c1.568-.9,2.353-2.092,2.353-3.279h0Z" transform="translate(-404.969 -114.75)" fill="url(#radial-gradient-4)"/>
            </g>
          </g>
        </g>
        <path id="Trazado_184007" data-name="Trazado 184007" d="M412.2,170.23c0,.984-.692,1.383-1.543.891a3.414,3.414,0,0,1-1.543-2.673c0-.984.692-1.383,1.543-.891A3.414,3.414,0,0,1,412.2,170.23Z" transform="translate(-405.562 -122.271)" fill="#d4ecff"/>
      </g>
      <g id="Grupo_142630" data-name="Grupo 142630">
        <g id="Grupo_142626" data-name="Grupo 142626">
          <path id="Trazado_184008" data-name="Trazado 184008" d="M342.065,63.351l21.326-12.27s-.8,12.244-.8,12.27-12.251,3.795-12.251,3.795Z" transform="translate(-336.612 -38.463)" fill="#5793ce"/>
          <path id="Trazado_184009" data-name="Trazado 184009" d="M458.946,131.861c0-8.611-6.045-19.081-13.5-23.387a13.4,13.4,0,0,0-4.613-1.71c-2.15-11.3-10.013-23.3-19.389-28.713a18.97,18.97,0,0,0-7.933-2.685c-1.28-13.7-10.8-29.261-22.368-35.938-6.041-3.488-11.521-3.9-15.566-1.765v-.01l-.2.112c-.1.057-.207.117-.308.177L362.5,45.37l4.178,3.3c-3.751,1.639-6.122,5.846-6.122,12.064,0,11.467,8.051,25.411,17.982,31.144l61.3,43.776,1.891,12.757,13.248-7.8.035-.021.08-.046,0,0C457.475,139.105,458.946,136.108,458.946,131.861Z" transform="translate(-339.256 -36.358)" fill="url(#radial-gradient-5)"/>
          <path id="Trazado_184010" data-name="Trazado 184010" d="M361.278,55.685l28.861-16.862c-5.6-2.922-10.665-3.163-14.461-1.159v-.01l-.2.112c-.1.057-.206.117-.307.177L362.6,45.37l4.178,3.3C364.157,49.816,362.213,52.22,361.278,55.685Z" transform="translate(-339.359 -36.358)" fill="#5793ce"/>
          <path id="Trazado_184011" data-name="Trazado 184011" d="M419.805,112.065l21.058-12.358c-3.612-6.247-8.585-11.7-14.092-14.883q-1.093-.631-2.156-1.11L397.83,99.378Z" transform="translate(-344.586 -43.13)" fill="#5793ce"/>
          <path id="Trazado_184012" data-name="Trazado 184012" d="M369.744,46.841l9.385,5.418,17.186-10.123a34.044,34.044,0,0,0-3.861-2.616A24.151,24.151,0,0,0,386.449,37Z" transform="translate(-340.57 -36.449)" fill="#d4ecff"/>
          <path id="Trazado_184013" data-name="Trazado 184013" d="M442.53,98.133l-16.808,9.9,5.846,6.519,15.258-9.009A49.02,49.02,0,0,0,442.53,98.133Z" transform="translate(-348.575 -45.192)" fill="#d4ecff"/>
          <path id="Trazado_184014" data-name="Trazado 184014" d="M428.687,117.548a13.443,13.443,0,0,0-4.614-1.71c-2.149-11.3-10.012-23.3-19.388-28.713a18.985,18.985,0,0,0-7.934-2.685c-1.28-13.7-10.8-29.261-22.367-35.938-12.437-7.18-22.519-1.359-22.519,13,0,.488.014.979.037,1.472-9.094-4.218-16.2.535-16.2,11.307,0,11.468,8.051,25.411,17.982,31.144l75,43.3c7.458,4.306,13.5.815,13.5-7.8S436.145,121.853,428.687,117.548Z" transform="translate(-335.702 -37.655)" fill="url(#linear-gradient)"/>
          <g id="Grupo_142624" data-name="Grupo 142624" transform="translate(4.113 6.702)">
            <path id="Trazado_184015" data-name="Trazado 184015" d="M352.588,65.473c-.022-.494-.037-.986-.037-1.472,0-.021,0-.04,0-.061-5.025-1.953-9.342-1.1-12.052,2.032C343.445,63.548,347.726,63.217,352.588,65.473Z" transform="translate(-340.501 -46.855)" fill="#fff"/>
            <path id="Trazado_184016" data-name="Trazado 184016" d="M433.314,116.3a13.423,13.423,0,0,0-4.614-1.711c-2.149-11.3-10.012-23.3-19.388-28.712a18.969,18.969,0,0,0-7.933-2.685c-1.28-13.7-10.8-29.262-22.368-35.938-7.748-4.474-14.581-3.9-18.633.641,4.127-3.527,10.447-3.664,17.535.429C389.478,55,399,70.566,400.28,84.262a18.985,18.985,0,0,1,7.934,2.685c9.376,5.413,17.238,17.413,19.388,28.713a13.443,13.443,0,0,1,4.614,1.71c7.458,4.306,13.5,14.776,13.5,23.388a11.123,11.123,0,0,1-2.153,7.183c2.022-1.558,3.251-4.383,3.251-8.253C446.817,131.075,440.772,120.6,433.314,116.3Z" transform="translate(-343.343 -44.179)" fill="#fff"/>
          </g>
          <g id="Grupo_142625" data-name="Grupo 142625" transform="translate(3.77 11.533)">
            <path id="Trazado_184017" data-name="Trazado 184017" d="M350.945,67.023l5.638,2.614-.287-6.207c-.021-.436-.033-.869-.033-1.3,0-5.541,1.673-9.559,4.711-11.313s7.355-1.193,12.153,1.578c10.322,5.959,19.325,20.464,20.5,33.024l.3,3.165,3.168.243a15.252,15.252,0,0,1,6.338,2.191c8.2,4.733,15.587,15.732,17.569,26.152l.5,2.609,2.623.41a9.739,9.739,0,0,1,3.313,1.251c6.3,3.636,11.617,12.851,11.617,20.121,0,2.721-.754,4.718-2.07,5.478s-3.421.414-5.778-.946l-75-43.3c-8.725-5.037-16.1-17.8-16.1-27.88,0-3.953,1.166-6.966,3.2-8.264a5.477,5.477,0,0,1,2.99-.8A11.28,11.28,0,0,1,350.945,67.023Z" transform="translate(-340.101 -49.815)" fill="url(#radial-gradient-6)"/>
          </g>
        </g>
        <g id="Grupo_142629" data-name="Grupo 142629" transform="translate(35.69 47.978)">
          <path id="Trazado_184018" data-name="Trazado 184018" d="M396.435,124.333l1.978-.993-1.948-1.476Z" transform="translate(-380.076 -96.564)" fill="#5793ce"/>
          <path id="Trazado_184019" data-name="Trazado 184019" d="M389.5,93.4l1.921-.971.035,1.006Z" transform="translate(-379.085 -92.354)" fill="#5793ce"/>
          <path id="Trazado_184020" data-name="Trazado 184020" d="M402.711,116.675l2-1.008L400.858,112Z" transform="translate(-380.709 -95.153)" fill="#5793ce"/>
          <g id="Grupo_142627" data-name="Grupo 142627" transform="translate(2.009)">
            <path id="Trazado_184021" data-name="Trazado 184021" d="M396.362,120.519,386.994,115a2,2,0,0,1-.858-1.575l.031-10.845,11.09,6.531-.031,10.845C397.224,120.548,396.837,120.8,396.362,120.519Z" transform="translate(-380.612 -93.806)" fill="#5793ce"/>
            <path id="Trazado_184022" data-name="Trazado 184022" d="M390,92.425l-10.118,6.51c-.429.277-.082,1.306.57,1.69l10.333,6.086,10.333,6.086c.652.384,1-.235.578-1.015L391.647,93.4C391.213,92.6,390.435,92.144,390,92.425Z" transform="translate(-379.691 -92.342)" fill="#5793ce"/>
          </g>
          <g id="Grupo_142628" data-name="Grupo 142628" transform="translate(0 1.011)">
            <path id="Trazado_184023" data-name="Trazado 184023" d="M394.018,121.7l-9.368-5.517a2,2,0,0,1-.858-1.575l.031-10.845,11.09,6.531-.031,10.845C394.88,121.728,394.493,121.979,394.018,121.7Z" transform="translate(-378.268 -94.986)" fill="#2ec49f"/>
            <path id="Trazado_184024" data-name="Trazado 184024" d="M387.654,93.605l-10.118,6.511c-.429.276-.082,1.306.57,1.69l10.333,6.086,10.333,6.086c.652.384,1-.234.578-1.015L389.3,94.576C388.869,93.782,388.091,93.324,387.654,93.605Z" transform="translate(-377.347 -93.522)" fill="#2ec49f"/>
          </g>
        </g>
      </g>
    </g>
  </g>
</svg>
