<svg id="Grupo_1044013" data-name="Grupo 1044013" xmlns="http://www.w3.org/2000/svg" xmlns:xlink="http://www.w3.org/1999/xlink" width="82.799" height="80.44" viewBox="0 0 82.799 80.44">
  <defs>
    <radialGradient id="radial-gradient" cx="0.055" cy="0.064" r="1.056" gradientTransform="translate(-0.02) scale(1.039 1)" gradientUnits="objectBoundingBox">
      <stop offset="0" stop-color="#699dd1"/>
      <stop offset="0.266" stop-color="#6296cb"/>
      <stop offset="0.641" stop-color="#5084bd"/>
      <stop offset="1" stop-color="#396caa"/>
    </radialGradient>
    <linearGradient id="linear-gradient" x1="0.131" y1="0.119" x2="0.99" y2="1.006" gradientUnits="objectBoundingBox">
      <stop offset="0" stop-color="#d4ecff"/>
      <stop offset="0.201" stop-color="#d0e9fd"/>
      <stop offset="0.387" stop-color="#c5e2f9"/>
      <stop offset="0.568" stop-color="#b2d5f1"/>
      <stop offset="0.744" stop-color="#98c4e7"/>
      <stop offset="0.842" stop-color="#86b8e0"/>
    </linearGradient>
  </defs>
  <path id="Trazado_183958" data-name="Trazado 183958" d="M512.132,313.031,477.9,293.266c-2.1-1.213-1.837-3.332.589-4.732l33.055-19.085c2.427-1.4,6.1-1.552,8.2-.339l34.234,19.765c2.1,1.213,1.838,3.332-.589,4.732l-33.055,19.085C517.9,314.092,514.234,314.244,512.132,313.031Z" transform="translate(-474.537 -233.41)" fill="#7dc3ea"/>
  <path id="Trazado_183959" data-name="Trazado 183959" d="M515.884,306.131a9.217,9.217,0,0,1-4.55-1.089L477.1,285.279a4.358,4.358,0,0,1-2.389-3.74,5.235,5.235,0,0,1,2.979-4.361l33.054-19.085c3.059-1.763,7.419-1.91,10.142-.338l34.233,19.764a4.356,4.356,0,0,1,2.39,3.74,5.24,5.24,0,0,1-2.979,4.361L521.475,304.7A11.388,11.388,0,0,1,515.884,306.131Zm.489-45.573a7.667,7.667,0,0,0-3.684.9l-33.055,19.085c-.83.48-1.029.913-1.035,1a1.252,1.252,0,0,0,.447.371l34.234,19.764c1.509.871,4.431.711,6.25-.341l33.056-19.085c.831-.479,1.031-.913,1.036-.994a1.261,1.261,0,0,0-.448-.371l-34.233-19.763A5.275,5.275,0,0,0,516.373,260.558Z" transform="translate(-474.711 -234.555)" fill="#fff"/>
  <path id="Trazado_183960" data-name="Trazado 183960" d="M555.38,269.634h0V257.823l-26.485-.014-9.156-5.286c-2.1-1.213-5.77-1.061-8.2.339L503,257.794l-26.509-.015v12.148a2.373,2.373,0,0,0,1.407,2.2l34.234,19.765c2.1,1.214,5.771,1.061,8.2-.339l33.055-19.085C554.783,271.656,555.459,270.609,555.38,269.634Z" transform="translate(-474.536 -235.043)" fill="#396caa"/>
  <path id="Trazado_183961" data-name="Trazado 183961" d="M515.936,251.709a9.462,9.462,0,0,0-4.394,1.152L503,257.793l-26.509-.015v12.148a2.373,2.373,0,0,0,1.407,2.2l34.234,19.765a7.407,7.407,0,0,0,3.8.813Z" transform="translate(-474.536 -235.043)" fill="url(#radial-gradient)"/>
  <path id="Trazado_183962" data-name="Trazado 183962" d="M479.491,257.236l-3,0v12.148a2.373,2.373,0,0,0,1.407,2.2l1.593.921Z" transform="translate(-474.536 -234.499)" fill="#d4ecff"/>
  <path id="Trazado_183963" data-name="Trazado 183963" d="M509.416,289.763a9.335,9.335,0,0,0,6.552-.075V275.9h-6.552Z" transform="translate(-471.293 -232.661)" fill="#5793ce"/>
  <path id="Trazado_183964" data-name="Trazado 183964" d="M512.132,281.277,477.9,261.513c-2.1-1.214-1.837-3.333.589-4.733L511.542,237.7c2.427-1.4,6.1-1.553,8.2-.341l34.234,19.765c2.1,1.213,1.838,3.332-.589,4.732l-33.055,19.085C517.9,282.338,514.234,282.491,512.132,281.277Z" transform="translate(-474.537 -236.537)" fill="url(#linear-gradient)"/>
  <path id="Trazado_183965" data-name="Trazado 183965" d="M553.384,257.6l-33.055,19.085c-2.426,1.4-6.1,1.553-8.2.339L477.9,257.259a3.16,3.16,0,0,1-1.048-.93c-.722,1.162-.394,2.422,1.048,3.255l34.234,19.765c2.1,1.214,5.771,1.061,8.2-.339l33.055-19.085c1.885-1.087,2.458-2.608,1.637-3.8A4.583,4.583,0,0,1,553.384,257.6Z" transform="translate(-474.537 -234.608)" fill="#fff"/>
  <g id="Grupo_142608" data-name="Grupo 142608" transform="translate(65.487 31.584)">
    <path id="Trazado_183966" data-name="Trazado 183966" d="M537.092,270.954a3.054,3.054,0,0,1-1.382,2.395c-.763.442-1.383.083-1.383-.8a3.059,3.059,0,0,1,1.383-2.4C536.474,269.714,537.092,270.072,537.092,270.954Z" transform="translate(-534.327 -264.829)" fill="#d4ecff"/>
    <path id="Trazado_183967" data-name="Trazado 183967" d="M541.142,268.616a3.056,3.056,0,0,1-1.382,2.395c-.765.44-1.383.083-1.383-.8a3.056,3.056,0,0,1,1.383-2.395C540.523,267.376,541.142,267.733,541.142,268.616Z" transform="translate(-533.928 -265.06)" fill="#d4ecff"/>
    <path id="Trazado_183968" data-name="Trazado 183968" d="M545.192,266.278a3.056,3.056,0,0,1-1.383,2.395c-.763.44-1.382.083-1.382-.8a3.054,3.054,0,0,1,1.382-2.395C544.573,265.037,545.192,265.4,545.192,266.278Z" transform="translate(-533.529 -265.29)" fill="#d4ecff"/>
  </g>
  <g id="Grupo_142609" data-name="Grupo 142609" transform="translate(22.936 11.55)">
    <path id="Trazado_183969" data-name="Trazado 183969" d="M512.275,267.988l-16.02-9.249c-.983-.567-.86-1.559.276-2.214L512,247.594a4.268,4.268,0,0,1,3.836-.159l16.02,9.249c.983.568.86,1.56-.276,2.214l-15.468,8.931A4.262,4.262,0,0,1,512.275,267.988Z" transform="translate(-495.591 -247.052)" fill="#5793ce"/>
    <path id="Trazado_183970" data-name="Trazado 183970" d="M512.382,259.321l-2.217-1.28c-.136-.078-.119-.215.038-.306l2.14-1.235a.59.59,0,0,1,.531-.023l2.217,1.28c.136.079.119.216-.038.306l-2.14,1.236A.587.587,0,0,1,512.382,259.321Z" transform="translate(-494.165 -246.129)" fill="#d4ecff"/>
    <path id="Trazado_183971" data-name="Trazado 183971" d="M496.255,258.739l.046.026a2.33,2.33,0,0,1,.23-.158L512,249.676a4.265,4.265,0,0,1,3.836-.159l15.975,9.223c.906-.648.953-1.531.045-2.056l-16.02-9.249a4.268,4.268,0,0,0-3.836.159l-15.468,8.931C495.394,257.18,495.271,258.172,496.255,258.739Z" transform="translate(-495.591 -247.052)" fill="#396caa"/>
  </g>
</svg>
