<svg xmlns="http://www.w3.org/2000/svg" width="54.753" height="70.642" viewBox="0 0 54.753 70.642">
  <g id="candado" transform="translate(-57.58)">
    <path id="Trazado_144631" data-name="Trazado 144631" d="M152.2,38.441V27.383a19.78,19.78,0,1,0-39.56,0V38.441m7.133,0V27.383a12.647,12.647,0,1,1,25.294,0V38.441" transform="translate(-47.462 -6.554)" fill="#d3dae0"/>
    <g id="Grupo_83978" data-name="Grupo 83978" transform="translate(65.176 1.049)">
      <path id="Trazado_144632" data-name="Trazado 144632" d="M133.572,7.637c-.382-.022-.766-.034-1.154-.034a19.78,19.78,0,0,0-19.78,19.78V38.441h2.308V27.383A19.78,19.78,0,0,1,133.572,7.637Z" transform="translate(-112.638 -7.603)" fill="#899ea8"/>
      <path id="Trazado_144633" data-name="Trazado 144633" d="M265.52,59.3c-.389,0-.774.019-1.154.053a12.663,12.663,0,0,1,11.492,12.594V83h2.308V71.948A12.66,12.66,0,0,0,265.52,59.3Z" transform="translate(-243.432 -52.167)" fill="#899ea8"/>
    </g>
    <path id="Trazado_144637" data-name="Trazado 144637" d="M0,0H52.655V37.706H0Z" transform="translate(58.629 31.887)" fill="#ffca28"/>
    <rect id="Rectángulo_31537" data-name="Rectángulo 31537" width="4.615" height="37.706" transform="translate(58.629 31.887)" fill="#e48900"/>
    <path id="Trazado_144634" data-name="Trazado 144634" d="M226.277,306.715a5.664,5.664,0,1,0-8.354,4.985l-.911,6.972h7.2L223.3,311.7A5.663,5.663,0,0,0,226.277,306.715Z" transform="translate(-135.657 -259.514)" fill="#3e3d4c"/>
    <path id="Trazado_144635" data-name="Trazado 144635" d="M111.284,30.838h-5.5V26.852a1.049,1.049,0,0,0-1.049-1.049h0a1.049,1.049,0,0,0-1.049,1.049v3.986H98.652V21A13.7,13.7,0,1,0,71.26,20.83V30.838H66.225v-9.8a18.731,18.731,0,1,1,37.462-.206v1.127a1.049,1.049,0,0,0,1.049,1.049h0a1.049,1.049,0,0,0,1.049-1.049V21.03a20.829,20.829,0,1,0-41.657-.2V30.838h-5.5a1.049,1.049,0,0,0-1.049,1.049V59.3a1.049,1.049,0,0,0,1.049,1.049h0A1.049,1.049,0,0,0,59.678,59.3V32.936h50.557V68.544H59.678V64.195a1.049,1.049,0,0,0-1.049-1.049h0a1.049,1.049,0,0,0-1.049,1.049v5.4a1.049,1.049,0,0,0,1.049,1.049h52.655a1.049,1.049,0,0,0,1.049-1.049V31.887A1.049,1.049,0,0,0,111.284,30.838ZM73.358,20.83a11.6,11.6,0,1,1,23.2,0V30.838h-23.2Z"/>
    <path id="Trazado_144636" data-name="Trazado 144636" d="M220.772,300.16a6.713,6.713,0,1,0-10.531,5.522l-.824,6.3a1.049,1.049,0,0,0,1.04,1.185h7.2a1.049,1.049,0,0,0,1.04-1.185l-.824-6.3A6.708,6.708,0,0,0,220.772,300.16Zm-4.522,4.063a1.049,1.049,0,0,0-.541,1.059l.757,5.787h-4.813l.757-5.787a1.049,1.049,0,0,0-.541-1.059,4.615,4.615,0,1,1,4.382,0Z" transform="translate(-129.103 -252.959)"/>
  </g>
</svg>
